<svg xmlns="http://www.w3.org/2000/svg" width="243" height="171" fill="none" viewBox="0 0 243 171">
  <g clip-path="url(#clip0)">
    <path fill="#EFF2FA" d="M157.233 153.926l-50.87-29.37a6.138 6.138 0 01-2.247-8.385l51.987-90.044a6.139 6.139 0 018.385-2.247l50.869 29.37a6.138 6.138 0 012.247 8.385l-51.987 90.044a6.139 6.139 0 01-8.384 2.247z"/>
    <path fill="#515262" d="M147.555 82.672c-2.24 3.88-.919 8.837 2.951 11.071a8.076 8.076 0 007.529.288 8.075 8.075 0 004.013 6.376c3.87 2.234 8.824.9 11.064-2.98 4.891-8.47-3.713-23.08-3.713-23.08s-16.953-.146-21.844 8.325zM157.401 38.908c-1.121 1.942-.437 4.437 1.529 5.572a4.12 4.12 0 003.811.169 4.12 4.12 0 002.052 3.216c1.966 1.135 4.469.48 5.59-1.461 2.448-4.24-1.953-11.608-1.953-11.608s-8.581-.127-11.029 4.112zM151.561 131.512c1.121-1.942 3.624-2.596 5.59-1.461a4.116 4.116 0 012.052 3.216 4.117 4.117 0 013.811.169c1.966 1.135 2.651 3.629 1.53 5.571-2.449 4.24-11.029 4.112-11.029 4.112s-4.402-7.367-1.954-11.607z"/>
    <g>
      <path fill="#2D2B29" d="M215.318 51.063l-48.714-28.126c-4.476-2.584-10.221-1.045-12.806 3.432l-50.625 87.685c-2.585 4.477-1.045 10.222 3.431 12.807l48.714 28.125c4.477 2.584 10.222 1.045 12.807-3.432l50.625-87.685c2.584-4.477 1.045-10.222-3.432-12.806zm-50.441 98.616a5.632 5.632 0 01-7.684 2.059l-48.714-28.125a5.632 5.632 0 01-2.059-7.684l50.625-87.685a5.632 5.632 0 017.684-2.059l48.714 28.125a5.631 5.631 0 012.059 7.684l-50.625 87.685z"/>
      <path fill="#2D2B29" d="M145.643 134.244l-29.228-16.875 37.5-64.952a1.876 1.876 0 00-3.248-1.875l-38.438 66.576a1.875 1.875 0 00.687 2.561l30.852 17.813a1.875 1.875 0 001.875-3.248zM176.28 43.68l29.228 16.874-37.5 64.952a1.875 1.875 0 003.248 1.875l38.437-66.576a1.875 1.875 0 00-.686-2.561l-30.852-17.813a1.874 1.874 0 10-1.875 3.248z"/>
      <path fill="#2D2B29" d="M161.111 102.031c4.759 2.747 10.871 1.103 13.624-3.666 5.376-9.31-3.347-24.334-3.72-24.969a1.877 1.877 0 00-1.6-.924c-.737-.006-18.109-.048-23.484 9.263-2.754 4.769-1.122 10.884 3.638 13.632a9.935 9.935 0 004.763 1.328l-.619 1.072a1.878 1.878 0 01-2.562.686l-1.623-.937a1.876 1.876 0 00-1.875 3.247l9.742 5.625a1.875 1.875 0 101.875-3.247l-1.623-.938a1.877 1.877 0 01-.687-2.561l.619-1.072a9.943 9.943 0 003.532 3.461zm-9.667-9.912c-2.969-1.714-3.985-5.531-2.266-8.51 3.626-6.279 15.473-7.221 19.124-7.362 1.705 3.234 6.811 13.964 3.186 20.243-1.72 2.979-5.534 4.007-8.502 2.293a6.217 6.217 0 01-3.082-4.9 1.875 1.875 0 00-2.676-1.544 6.217 6.217 0 01-5.784-.22zM161.445 46.894a6.014 6.014 0 002.41 2.594c2.859 1.65 6.515.688 8.151-2.147 2.915-5.048-1.459-12.655-1.967-13.506a1.875 1.875 0 00-1.582-.913c-.991-.015-9.766.001-12.68 5.049-1.637 2.834-.643 6.482 2.216 8.133a6.013 6.013 0 003.452.79zm-2.421-7.048c1.317-2.28 5.814-3 8.306-3.145 1.12 2.232 2.745 6.485 1.429 8.765-.603 1.044-1.961 1.391-3.029.775a2.253 2.253 0 01-1.121-1.753 1.873 1.873 0 00-2.663-1.537 2.252 2.252 0 01-2.079-.095c-1.067-.616-1.445-1.967-.843-3.01zM162.57 48.754l-3.298-1.904a1.876 1.876 0 00-1.875 3.247l3.298 1.905a1.875 1.875 0 001.875-3.248zM163.952 131.812a6.02 6.02 0 00-3.453-.79 6.014 6.014 0 00-2.41-2.595c-2.858-1.65-6.515-.687-8.151 2.147-2.915 5.048 1.459 12.656 1.967 13.507a1.882 1.882 0 001.582.913c.991.014 9.766-.002 12.68-5.05 1.637-2.834.643-6.482-2.215-8.132zm-9.34 9.403c-1.123-2.227-2.75-6.474-1.427-8.766.603-1.043 1.961-1.391 3.029-.774a2.252 2.252 0 011.121 1.752 1.873 1.873 0 002.663 1.538 2.25 2.25 0 012.079.095c1.067.616 1.445 1.966.843 3.009-1.317 2.282-5.817 3.001-8.308 3.146zM164.547 127.818l-3.298-1.904a1.875 1.875 0 00-1.875 3.248l3.298 1.904a1.876 1.876 0 001.875-3.248z"/>
    </g>
  </g>
  <g clip-path="url(#clip1)">
    <path fill="#EFF2FA" d="M125.712 137.091l-57.163-15.316a6.152 6.152 0 01-4.35-7.535L91.04 14.063a6.152 6.152 0 017.535-4.35l57.164 15.316a6.152 6.152 0 014.35 7.535l-26.842 100.177a6.152 6.152 0 01-7.535 4.35z"/>
    <path fill="#FF6464" d="M116.873 58.753c2.414 5.768 6.538 12.912 10.325 17.887.45.59.223 1.44-.463 1.727-5.767 2.414-12.91 6.539-17.885 10.327-.591.45-1.44.223-1.727-.462-2.413-5.769-6.537-12.912-10.325-17.887a1.127 1.127 0 01.463-1.727c5.768-2.415 12.91-6.54 17.885-10.328a1.127 1.127 0 011.727.463zM105.535 19.555c1.136 2.715 3.077 6.076 4.859 8.417a.53.53 0 01-.218.813c-2.714 1.136-6.075 3.077-8.416 4.86a.53.53 0 01-.813-.218c-1.136-2.714-3.077-6.076-4.859-8.417a.53.53 0 01.218-.813c2.714-1.136 6.075-3.077 8.416-4.86a.53.53 0 01.813.218zM118.466 127.416c-1.135-2.715-3.076-6.076-4.858-8.418a.53.53 0 01.217-.812c2.715-1.136 6.076-3.078 8.417-4.86a.53.53 0 01.813.217c1.136 2.715 3.076 6.077 4.858 8.418a.53.53 0 01-.217.812c-2.714 1.137-6.076 3.078-8.417 4.861a.53.53 0 01-.813-.218z"/>
    <g>
      <path fill="#2D2B29" d="M154.696 22.808L100.363 8.25c-4.993-1.338-10.144 1.636-11.482 6.629l-26.206 97.8c-1.338 4.993 1.636 10.144 6.63 11.482l54.333 14.559c4.993 1.337 10.144-1.636 11.482-6.63l26.205-97.8c1.338-4.993-1.636-10.144-6.629-11.482zM131.497 131.12a5.63 5.63 0 01-6.889 3.977l-54.333-14.558a5.631 5.631 0 01-3.978-6.889l26.206-97.8a5.631 5.631 0 016.89-3.978l54.332 14.559a5.632 5.632 0 013.978 6.889l-26.206 97.8z"/>
      <path fill="#2D2B29" d="M108.924 121.189l-32.6-8.735 20.382-76.067a1.875 1.875 0 00-3.622-.97l-20.868 77.877a1.876 1.876 0 001.326 2.297l34.411 9.22a1.876 1.876 0 00.971-3.622zM115.077 25.78l32.6 8.736-20.382 76.066a1.876 1.876 0 003.622.971l20.867-77.878c.268-1-.325-2.028-1.325-2.296l-34.412-9.22a1.875 1.875 0 10-.97 3.622z"/>
      <path fill="#2D2B29" d="M118.118 56.512a1.874 1.874 0 00-2.929-.785c-5.223 4.225-13.891 9.23-20.161 11.64a1.875 1.875 0 00-.785 2.93c4.225 5.222 9.229 13.89 11.64 20.16a1.874 1.874 0 002.929.785c5.223-4.225 13.891-9.23 20.161-11.64a1.877 1.877 0 00.785-2.929c-4.225-5.223-9.229-13.89-11.64-20.161zm-9.686 30.29c-2.414-5.534-6.164-12.029-9.748-16.885 5.533-2.414 12.028-6.164 16.885-9.749 2.413 5.533 6.163 12.028 9.748 16.885-5.533 2.414-12.028 6.164-16.885 9.748zM99.548 34.408a1.874 1.874 0 002.93.785c2.248-1.819 5.979-3.973 8.679-5.01a1.873 1.873 0 00.785-2.93c-1.819-2.249-3.973-5.98-5.011-8.68a1.878 1.878 0 00-2.93-.784c-2.248 1.819-5.98 3.973-8.679 5.01a1.876 1.876 0 00-.785 2.93c1.82 2.249 3.973 5.98 5.011 8.68zm4.856-12.262a44.651 44.651 0 003.18 5.51 44.687 44.687 0 00-5.509 3.18 44.602 44.602 0 00-3.18-5.51 44.663 44.663 0 005.509-3.18zM129.463 121.24c-1.819-2.248-3.973-5.979-5.011-8.679a1.872 1.872 0 00-2.929-.785c-2.249 1.819-5.98 3.973-8.679 5.011a1.876 1.876 0 00-.785 2.93c1.819 2.248 3.973 5.979 5.011 8.679a1.872 1.872 0 002.929.785c2.249-1.819 5.98-3.974 8.679-5.011.56-.215.983-.686 1.139-1.265a1.878 1.878 0 00-.354-1.665zm-9.866 3.583a44.664 44.664 0 00-3.181-5.509 44.785 44.785 0 005.509-3.18 44.664 44.664 0 003.181 5.509 44.657 44.657 0 00-5.509 3.18z"/>
    </g>
  </g>
  <path fill="#EFF2FA" d="M89.5 130.891H30.734a6.126 6.126 0 01-6.126-6.126V21.235a6.126 6.126 0 016.126-6.126H89.5a6.126 6.126 0 016.126 6.126v103.53a6.126 6.126 0 01-6.126 6.126z"/>
  <path fill="#FF6464" d="M43.594 68.698c0-4.998 4.028-9.05 8.997-9.05 2.462 0 4.692.997 6.316 2.61a1.555 1.555 0 002.186 0 8.933 8.933 0 016.316-2.61c4.969 0 8.997 4.052 8.997 9.05 0 9.346-12.035 17.848-15.49 20.096a1.678 1.678 0 01-1.833 0c-3.454-2.248-15.49-10.75-15.49-20.096zM31.875 26.657c0-2.57 2.072-4.654 4.627-4.654 1.267 0 2.413.513 3.248 1.343a.8.8 0 001.124 0 4.594 4.594 0 013.249-1.343c2.555 0 4.627 2.084 4.627 4.654 0 4.807-6.19 9.18-7.966 10.335a.863.863 0 01-.943 0c-1.777-1.156-7.966-5.528-7.966-10.335zM88.125 118.971c0 2.57-2.072 4.654-4.627 4.654a4.597 4.597 0 01-3.249-1.342.8.8 0 00-1.123 0 4.597 4.597 0 01-3.249 1.342c-2.555 0-4.627-2.084-4.627-4.654 0-4.806 6.19-9.179 7.966-10.335a.863.863 0 01.943 0c1.777 1.156 7.966 5.528 7.966 10.335z"/>
  <g>
    <path fill="#2D2B29" d="M41.261 69.143c0 12.138 17.088 21.952 17.815 22.364a1.875 1.875 0 001.848 0c.727-.412 17.815-10.226 17.815-22.364 0-6.148-4.99-11.15-11.123-11.15A11.105 11.105 0 0060 61.022a11.104 11.104 0 00-7.616-3.029c-6.133 0-11.123 5.002-11.123 11.15zm11.123-7.4a7.37 7.37 0 016.07 3.206 1.875 1.875 0 003.09 0 7.372 7.372 0 016.072-3.206c4.065 0 7.373 3.32 7.373 7.4 0 8.54-11.594 16.418-14.99 18.542C56.6 85.563 45.01 77.7 45.01 69.143c0-4.08 3.308-7.4 7.373-7.4zM39.385 39.014a1.875 1.875 0 001.847 0c.96-.545 9.385-5.502 9.385-12 0-3.592-2.916-6.514-6.5-6.514a6.486 6.486 0 00-3.808 1.237 6.484 6.484 0 00-3.81-1.237C32.917 20.5 30 23.422 30 27.014c0 6.498 8.424 11.455 9.385 12zM36.5 24.25a2.75 2.75 0 012.264 1.197 1.875 1.875 0 003.09 0 2.75 2.75 0 012.263-1.197 2.76 2.76 0 012.75 2.764c0 3.212-4.129 6.58-6.557 8.167-2.369-1.558-6.56-4.973-6.56-8.167a2.76 2.76 0 012.75-2.764zM80.607 107a1.875 1.875 0 00-1.846 0c-.961.543-9.386 5.496-9.386 11.991 0 3.589 2.916 6.509 6.5 6.509a6.481 6.481 0 003.808-1.237 6.483 6.483 0 003.81 1.237c3.583 0 6.5-2.92 6.5-6.509 0-6.495-8.426-11.448-9.386-11.991zm2.886 14.75a2.75 2.75 0 01-2.265-1.196 1.876 1.876 0 00-3.089 0 2.75 2.75 0 01-2.264 1.196 2.758 2.758 0 01-2.75-2.759c0-3.21 4.131-6.575 6.559-8.16 2.43 1.585 6.559 4.951 6.559 8.16a2.758 2.758 0 01-2.75 2.759z"/>
    <path fill="#2D2B29" d="M88.125 13h-56.25c-5.17 0-9.375 4.206-9.375 9.375v101.25c0 5.169 4.206 9.375 9.375 9.375h56.25c5.17 0 9.375-4.206 9.375-9.375V22.375c0-5.17-4.206-9.375-9.375-9.375zm5.625 110.625a5.632 5.632 0 01-5.625 5.625h-56.25a5.632 5.632 0 01-5.625-5.625V22.375a5.631 5.631 0 015.625-5.625h56.25a5.631 5.631 0 015.625 5.625v101.25z"/>
    <path fill="#2D2B29" d="M63.75 119.875H35.625v-78.75a1.875 1.875 0 00-3.75 0v80.625c0 1.035.84 1.875 1.875 1.875h30a1.875 1.875 0 000-3.75zM56.25 26.125h28.125v78.75a1.875 1.875 0 003.75 0V24.25c0-1.035-.84-1.875-1.875-1.875h-30a1.875 1.875 0 000 3.75z"/>
  </g>
  <defs>
    <clipPath id="clip0">
      <path fill="#fff" d="M0 0h120v120H0z" transform="rotate(30 56.438 262.878)"/>
    </clipPath>
    <clipPath id="clip1">
      <path fill="#fff" d="M0 0h120v120H0z" transform="rotate(15 34.787 264.232)"/>
    </clipPath>
  </defs>
</svg>
