<?xml version="1.0" standalone="no"?>
<!DOCTYPE svg PUBLIC "-//W3C//DTD SVG 20010904//EN"
 "http://www.w3.org/TR/2001/REC-SVG-20010904/DTD/svg10.dtd">
<svg version="1.0" xmlns="http://www.w3.org/2000/svg"
 width="359.000000pt" height="377.000000pt" viewBox="0 0 359.000000 377.000000"
 preserveAspectRatio="xMidYMid meet">

<g transform="translate(0.000000,377.000000) scale(0.100000,-0.100000)"
fill="#000000" stroke="none">
<path d="M1946 3695 c-9 -14 -22 -25 -29 -25 -7 0 -21 -6 -30 -12 -14 -11 6
-13 110 -13 122 0 131 -2 202 -33 71 -31 128 -42 116 -22 -3 5 -39 25 -79 44
-40 18 -76 38 -80 45 -4 6 -27 11 -52 11 -30 0 -46 5 -50 15 -5 12 -9 12 -29
-1 -20 -13 -24 -13 -35 1 -17 21 -25 19 -44 -10z"/>
<path d="M1617 3653 c-58 -22 -71 -24 -91 -13 -29 15 -55 3 -86 -40 -24 -34
-49 -38 -85 -14 -27 17 -31 10 -16 -30 7 -17 6 -27 -3 -35 -7 -6 -87 -49 -177
-97 -90 -47 -170 -91 -178 -99 -11 -11 -11 -25 3 -91 l16 -79 -4 70 c-2 39 -2
76 1 82 7 18 119 84 134 79 8 -2 44 -7 81 -10 66 -6 68 -6 105 27 35 30 92 73
222 165 32 23 54 32 71 28 58 -10 100 19 100 69 0 20 -13 18 -93 -12z"/>
<path d="M1960 3574 c-54 -19 -70 -31 -70 -52 0 -11 8 -13 36 -9 20 4 46 1 58
-5 20 -11 20 -11 1 -18 -18 -7 -18 -9 8 -20 36 -17 35 -31 -3 -23 -34 6 -37
-3 -12 -33 17 -20 20 -21 102 -7 63 11 94 12 126 4 24 -6 56 -11 71 -11 16 0
34 -5 40 -11 6 -6 16 -8 23 -4 8 5 6 11 -7 21 -16 13 -15 13 9 5 21 -8 28 -7
33 6 3 9 0 20 -7 24 -7 4 -22 15 -33 24 -20 16 -20 16 3 10 12 -4 22 -3 22 2
0 13 -91 71 -140 89 -67 24 -204 28 -260 8z"/>
<path d="M1589 3541 c-58 -36 -189 -149 -196 -168 -4 -9 14 -35 46 -67 l52
-53 -31 -69 c-29 -64 -31 -74 -23 -134 4 -36 7 -75 6 -87 -1 -13 -1 -23 1 -23
1 0 23 31 49 68 39 57 47 77 50 123 2 30 8 62 13 72 6 10 64 68 130 129 65 61
121 116 123 122 2 6 10 19 19 29 14 16 13 17 -9 17 -13 -1 -35 -7 -49 -15 -27
-15 -106 -20 -114 -7 -2 4 9 17 25 27 38 26 38 51 -2 59 -43 8 -40 9 -90 -23z"/>
<path d="M2417 3407 c3 -17 19 -57 36 -87 27 -50 31 -66 35 -165 l4 -110 -46
-33 c-40 -29 -46 -38 -46 -70 0 -20 11 -77 24 -127 13 -49 32 -125 41 -167 21
-97 39 -93 29 5 l-7 72 23 -20 23 -20 -8 25 c-4 14 -9 42 -12 63 -4 32 -3 37
15 37 23 0 72 20 72 29 0 3 -10 12 -22 20 -21 13 -20 15 38 42 l59 29 -43 -5
c-24 -3 -47 -3 -52 0 -10 6 42 119 59 129 5 4 14 -1 19 -9 7 -13 12 -9 27 19
15 28 17 38 7 48 -7 7 -12 35 -12 63 l0 50 -20 -25 c-15 -20 -22 -22 -31 -13
-10 10 -9 17 5 32 10 11 15 25 11 30 -3 6 -3 16 1 23 5 8 19 -2 42 -28 19 -21
32 -32 29 -23 -3 10 -11 35 -18 58 -7 24 -20 43 -31 47 -27 8 -65 -20 -82 -61
-16 -36 -36 -44 -54 -22 -8 10 -6 22 8 45 25 41 25 45 1 30 -17 -10 -24 -9
-42 7 -11 11 -27 36 -35 55 -8 20 -23 41 -34 48 -18 11 -19 10 -13 -21z"/>
<path d="M1069 3330 l-24 -20 27 6 c16 4 43 -1 67 -12 36 -16 38 -19 23 -30
-21 -16 -5 -18 37 -3 25 9 31 17 31 39 0 25 -4 28 -46 34 -73 10 -90 7 -115
-14z"/>
<path d="M1350 3256 c-17 -17 -171 -81 -215 -90 -16 -3 -45 -2 -62 3 -31 9
-33 8 -33 -14 0 -14 7 -43 16 -65 15 -37 19 -40 44 -35 25 5 31 1 59 -39 34
-52 32 -55 -22 -26 -79 43 -104 -5 -34 -65 l42 -37 77 7 c88 7 103 3 88 -26
-13 -24 -11 -24 45 3 l46 22 -6 91 c-5 66 -2 111 10 168 9 43 13 87 10 98 -7
23 -44 26 -65 5z"/>
<path d="M1671 3258 c-13 -7 -44 -37 -69 -65 l-45 -53 32 0 c21 0 31 -5 31
-15 0 -33 74 -3 90 36 8 19 20 29 34 29 12 0 27 5 34 12 9 9 12 7 12 -10 0
-24 19 -28 51 -11 16 8 25 7 40 -7 31 -28 20 -56 -36 -87 -27 -16 -42 -26 -31
-23 10 4 39 11 63 18 25 6 46 16 48 22 2 6 9 30 15 54 11 45 28 55 37 22 7
-28 20 -25 38 10 33 65 26 68 -175 76 -110 4 -151 2 -169 -8z"/>
<path d="M2138 3253 c-61 -16 -65 -22 -51 -73 l7 -25 6 25 c4 16 14 26 29 28
32 5 48 -12 31 -33 -21 -25 35 -19 60 7 17 18 20 19 20 5 0 -20 21 -22 38 -5
10 10 14 8 19 -10 4 -19 8 -20 20 -10 12 10 18 9 29 -7 8 -10 14 -25 14 -32 0
-20 14 -16 28 8 11 17 20 20 43 15 34 -7 35 -3 9 39 -24 39 -53 52 -140 64
-36 5 -74 11 -85 14 -11 3 -46 -1 -77 -10z"/>
<path d="M1600 3036 c-7 -22 -7 -42 -1 -59 17 -45 26 -36 27 29 1 71 -9 82
-26 30z"/>
<path d="M2190 2992 c-22 -22 -40 -47 -40 -56 0 -20 -4 -21 68 12 59 26 61 28
49 51 -19 38 -34 36 -77 -7z"/>
<path d="M1508 3008 c-9 -7 -18 -26 -21 -43 -2 -16 -8 -38 -12 -49 -14 -32 18
-13 34 20 8 16 21 41 28 57 12 23 12 27 0 27 -7 0 -20 -6 -29 -12z"/>
<path d="M1988 3009 c-32 -18 -22 -47 22 -60 22 -7 45 -18 51 -26 15 -17 39
-17 39 0 0 22 -61 97 -78 97 -10 0 -25 -5 -34 -11z"/>
<path d="M1715 2921 c-47 -45 -97 -88 -111 -98 -25 -16 -27 -16 -43 6 -15 20
-19 21 -30 7 -14 -17 -4 -101 19 -160 l11 -30 24 52 c13 29 27 52 30 52 3 0
18 -25 32 -56 l25 -56 29 50 c16 28 56 74 89 103 63 56 69 69 45 89 -10 8 -15
30 -15 61 0 26 -4 51 -10 54 -5 3 -48 -30 -95 -74z"/>
<path d="M1347 2815 c-17 -23 -22 -25 -72 -19 -38 5 -59 3 -70 -6 -21 -18 -19
-40 5 -40 24 0 25 -9 5 -36 -39 -52 -1 -126 71 -137 23 -4 49 -16 59 -27 17
-19 17 -22 1 -63 -19 -51 -20 -67 -3 -67 6 0 29 -5 50 -11 l38 -10 -26 -34
c-14 -19 -42 -85 -62 -146 -39 -121 -75 -171 -133 -184 -26 -6 -36 -18 -70
-86 -22 -43 -42 -79 -44 -79 -2 0 3 30 10 67 8 36 12 68 9 71 -8 9 -70 -15
-190 -74 l-110 -54 -110 0 -110 0 -53 -65 c-54 -66 -65 -74 -78 -53 -4 6 -19
-24 -35 -68 -21 -58 -29 -98 -29 -151 0 -40 -3 -73 -7 -73 -3 0 -15 8 -26 17
-18 17 -20 17 -38 -5 -24 -31 -39 -85 -39 -147 -1 -109 -49 -303 -112 -450
-75 -173 -145 -395 -132 -416 7 -13 190 -11 374 2 147 11 162 15 328 70 162
54 177 57 206 45 17 -7 103 -62 191 -121 155 -105 282 -175 316 -175 34 0 211
50 269 76 l60 27 0 86 c0 52 -8 117 -20 166 -11 44 -36 154 -55 245 -19 91
-55 229 -79 308 -50 158 -63 219 -70 307 -2 32 -9 61 -15 63 -6 2 -11 11 -11
19 0 8 -18 72 -40 142 -23 69 -44 146 -47 171 l-6 45 54 -55 c48 -49 191 -172
244 -210 11 -8 -39 44 -111 115 -198 198 -238 272 -238 448 -1 71 2 81 23 98
33 27 48 24 72 -13 20 -31 21 -27 4 15 -5 11 -2 17 8 17 24 0 32 66 11 97 -12
20 -15 37 -10 74 8 61 -6 112 -44 164 -17 22 -42 64 -56 93 -14 28 -29 52 -32
52 -4 0 -15 -12 -25 -25z"/>
<path d="M1861 2687 l-135 -52 -13 -50 c-7 -27 -13 -64 -13 -81 0 -29 2 -30
63 -41 34 -6 66 -7 70 -4 4 4 -2 19 -13 33 -27 35 -26 84 5 124 20 26 43 38
117 63 108 36 157 38 308 14 70 -10 112 -22 126 -35 29 -26 37 -22 19 11 -16
33 -21 34 -175 56 -174 24 -207 21 -359 -38z"/>
<path d="M1983 2643 c-19 -7 -15 -23 6 -23 10 0 30 -11 45 -25 15 -14 31 -25
36 -25 5 0 21 -5 35 -10 24 -9 25 -12 14 -27 -8 -9 -27 -22 -44 -30 l-30 -14
42 6 c41 5 193 68 193 80 0 3 -12 10 -26 15 -38 15 -19 30 39 30 39 1 48 3 35
10 -17 11 -324 22 -345 13z"/>
<path d="M1903 2633 c-22 -8 -14 -23 11 -23 13 0 26 7 30 15 5 15 -15 19 -41
8z"/>
<path d="M1600 2560 c-11 -7 -15 -30 -15 -92 l-1 -83 38 75 c35 69 36 75 21
92 -18 21 -22 21 -43 8z"/>
<path d="M1944 2422 c-41 -30 -42 -30 -87 -15 -45 15 -48 15 -92 -11 -25 -15
-45 -32 -45 -38 0 -6 16 -28 35 -49 19 -22 35 -43 35 -49 0 -13 -61 10 -67 26
-4 11 -11 9 -35 -7 l-29 -21 -50 26 c-27 15 -49 24 -49 19 0 -19 41 -73 81
-106 47 -38 208 -136 259 -157 16 -7 30 -18 30 -25 0 -7 -27 -69 -59 -138 -33
-69 -63 -143 -66 -164 -5 -31 -1 -26 20 27 39 99 59 110 90 50 13 -25 12 -39
-10 -146 -36 -171 -51 -521 -36 -824 6 -124 11 -279 11 -344 l0 -119 81 -151
c103 -192 103 -192 127 -135 11 24 47 94 82 154 l62 110 -6 353 c-7 437 -32
668 -101 942 -37 149 -42 178 -30 195 22 34 37 22 59 -46 21 -65 50 -119 64
-119 4 0 19 21 34 48 61 105 88 156 71 132 -85 -118 -106 -141 -115 -127 -4 8
-24 64 -44 124 -20 59 -47 127 -60 151 l-23 43 61 37 c33 20 95 62 137 92 116
84 132 93 143 82 18 -18 37 -123 48 -256 10 -138 6 -193 -18 -241 -12 -23 -18
-81 -23 -250 -5 -146 -13 -235 -22 -266 -8 -25 -18 -81 -22 -125 -10 -115 -32
-246 -62 -354 -33 -124 -30 -230 10 -312 23 -47 34 -59 75 -76 57 -25 231 -76
447 -133 l160 -41 260 22 c143 12 261 23 262 24 2 1 -19 99 -46 217 -162 701
-207 855 -340 1150 -33 75 -61 149 -61 166 0 51 -40 186 -66 225 -14 20 -43
48 -64 63 -33 23 -45 26 -79 20 -54 -9 -146 16 -256 70 l-90 45 40 -35 c64
-56 131 -84 256 -105 107 -18 116 -22 147 -55 33 -36 38 -64 23 -130 l-7 -30
-20 34 c-38 66 -56 79 -139 100 -104 26 -111 21 -97 -72 8 -53 7 -82 -8 -158
-28 -143 -87 -389 -105 -434 -17 -45 -18 -49 22 135 40 190 63 321 63 369 0
34 -11 66 -49 137 -61 114 -150 259 -198 321 -30 40 -34 52 -30 85 6 45 -9 98
-27 98 -18 0 -110 -31 -120 -41 -26 -23 -126 -2 -126 27 0 12 -5 14 -17 8 -21
-9 -50 -9 -113 1 -40 6 -50 3 -86 -23z"/>
<path d="M1280 2255 c-67 -69 -107 -87 -520 -235 -80 -29 -173 -65 -208 -81
-70 -31 -156 -94 -170 -124 -39 -80 -63 -150 -60 -173 2 -21 10 -8 32 56 16
46 40 97 52 112 42 49 173 123 289 161 130 43 267 94 311 114 17 8 55 20 85
26 30 6 82 22 115 36 53 21 66 32 93 75 46 73 36 89 -19 33z"/>
<path d="M2376 1933 c-6 -14 -5 -15 5 -6 7 7 10 15 7 18 -3 3 -9 -2 -12 -12z"/>
<path d="M282 1488 c-18 -55 -35 -155 -29 -170 3 -7 6 -4 6 8 1 12 10 58 22
104 20 82 21 122 1 58z"/>
<path d="M241 1234 c0 -11 3 -14 6 -6 3 7 2 16 -1 19 -3 4 -6 -2 -5 -13z"/>
</g>
</svg>
