<?xml version="1.0" encoding="utf-8"?>
<!-- Generator: Adobe Illustrator 24.3.0, SVG Export Plug-In . SVG Version: 6.00 Build 0)  -->
<svg version="1.1" id="Layer_1" xmlns="http://www.w3.org/2000/svg" xmlns:xlink="http://www.w3.org/1999/xlink" x="0px" y="0px"
	 viewBox="0 0 726.1 689.7" style="enable-background:new 0 0 726.1 689.7;" xml:space="preserve">
<style type="text/css">
	.st0{fill-rule:evenodd;clip-rule:evenodd;fill:#0ACB74;}
	.st1{fill:#714A44;}
	.st2{fill:#F0CEB2;}
	.st3{fill:#B8836F;}
	.st4{fill:#FFFFFF;}
	.st5{fill:#231F20;}
	.st6{fill:#2C2F38;}
	.st7{fill:#E64C3C;}
</style>
<path class="st0" d="M395.3,4c74,3.8,134.4,47.1,186.7,99.5c45.8,45.8,63.4,107.8,90.1,166.9c30.9,68.3,64,135.3,51.2,209.1
	C710,555.6,663,608.2,593.1,641.3c-65.1,30.8-126.3,23-198.2,27.2c-79.1,4.6-157.4,40.6-229,7C92.5,641.2,64.6,552.4,38.7,475.8
	c-26.2-77.4-51.3-162.3-21.3-238.3c29.4-74.4,96.8-114,164-157.5C244.7,39.1,320,0.1,395.3,4z"/>
<g>
	<path class="st1" d="M54.7,366.9c-8.4-17.8-43.2-107.1,46.1-92.3c64.5,20.2,51.5,73.9,46.1,89.7c-1,2.9-3.1,5.2-5.9,6.4
		C131,375.3,68.1,395.2,54.7,366.9z"/>
	<path class="st2" d="M74.4,354.6c-13.7-22.6-12.2-71.8,28.7-59.2c44.2,13.6,35.3,50.1,31.6,60.8c-0.7,2-2.1,3.5-4,4.4
		C123.8,363.7,88.2,377.3,74.4,354.6z"/>
	<path class="st1" d="M472.8,347.4c7.3-18.2,36.5-109.5-51.7-89.2c-63.1,24.1-46.8,76.9-40.5,92.4c1.2,2.8,3.4,5,6.3,6.1
		C397.2,360.5,461.2,376.5,472.8,347.4z"/>
	<path class="st1" d="M392,349.1c0.8-71.8,5-130.3-139.7-127.8c-152.6,2.6-139.6,62.5-139.6,139.6c0,10.1,1.1,20,3.1,29.4
		c0.8,18,6.7,34.7,10.3,45.2c21.4,61.1,114.3,149.9,185.7,148c50.6-1.3,117-73.6,122.1-137.7C437.7,398.2,405.2,361.9,392,349.1z"/>
	<path class="st2" d="M452.4,336.3c12.3-23.4,7.8-72.4-32.3-57.3c-43.3,16.3-32.1,52.2-27.8,62.6c0.8,1.9,2.3,3.4,4.3,4.1
		C403.7,348.4,440.1,359.8,452.4,336.3z"/>
	<path class="st3" d="M411.5,347.3c0.8-71.8,5-130.3-139.7-127.8c-152.6,2.6-139.6,62.5-139.6,139.6c0,10.1,1.1,20,3.1,29.4
		c0.8,18,6.7,34.7,10.3,45.2c21.4,61.1,114.3,149.9,185.7,148c50.7-1.3,117-73.6,122.1-137.7C457.2,396.4,424.7,360.1,411.5,347.3z"
		/>
	<path class="st2" d="M374.9,358.6c-2.8-1.3-3-5.2-0.4-6.9c12.8-8.6,20.9-21.4,20.9-35.8c0-25.8-26.2-46.8-58.4-46.8
		c-13.8,0-26.5,3.8-36.5,10.2c-1.5,0.9-3.4,0.8-4.7-0.3c-13.1-11-30.9-17.7-50.4-17.7c-40.5,0-73.4,29.1-73.4,64.9
		c0,35.9,32.9,64.9,73.4,64.9c0,0,0,0,0.1,0c3,0,5,3,3.7,5.7c-4.5,9.3-7,19.6-7,30.3c0,43.2,40.1,78.3,89.6,78.3s89.6-35,89.6-78.3
		C421.4,397.7,402.6,372,374.9,358.6z"/>
	<ellipse transform="matrix(0.9683 -0.2499 0.2499 0.9683 -74.4388 74.0651)" cx="254.5" cy="330.2" rx="9.5" ry="19.3"/>
	<ellipse transform="matrix(0.9875 -0.1575 0.1575 0.9875 -47.2721 58.7576)" cx="347.1" cy="327.6" rx="9.5" ry="19.3"/>
	<path class="st1" d="M214.4,318.5c20.7-43.9,53-14.6,51.5-16.8C239.5,263.8,206.1,298.2,214.4,318.5z"/>
	<path class="st1" d="M315.2,309.8c24.8-41.7,54.2-9.5,52.9-11.9C345.3,257.7,308.8,288.9,315.2,309.8z"/>
	
		<ellipse transform="matrix(0.9374 -0.3482 0.3482 0.9374 -117.046 130.0045)" class="st1" cx="303.1" cy="390.6" rx="10" ry="14.4"/>
	
		<ellipse transform="matrix(0.9374 -0.3482 0.3482 0.9374 -114.1645 138.5984)" class="st1" cx="328.5" cy="386.9" rx="10" ry="14.4"/>
	
		<ellipse transform="matrix(0.9683 -0.2499 0.2499 0.9683 -72.4455 74.0049)" class="st4" cx="255.2" cy="322.3" rx="3.4" ry="5.8"/>
	
		<ellipse transform="matrix(0.9875 -0.1575 0.1575 0.9875 -45.9252 58.8726)" class="st4" cx="348.5" cy="319.2" rx="3.4" ry="5.7"/>
	<path class="st5" d="M301.8,446.1c39.9-24.3,32.5,19.6,18.3,23C305.9,472.4,278.9,460,301.8,446.1z"/>
</g>
<g>
	<path class="st6" d="M537.6,166.3c-4.3-7.7-13.2-18.7-29.8-28.9c-0.1-0.1-0.3-0.1-0.4,0c-16.6,10.2-25.5,20.9-29.8,28.6
		c-5.1,9-2.2,19.9,7.1,24.5c2.4,1.2,4.2,1.4,6.3,1.4c0,0,0.5,0,1.4-0.1c3.7-0.6,7.2-2.4,9.8-5l0.4-0.4c0.6-0.6,1.5-0.1,1.4,0.7
		c-0.4,4.2-1.2,10.6-4.4,14.6c-1,1.2-0.2,3.1,1.4,3.1h13.4c1.6,0,2.4-1.8,1.4-3.1c-3.3-4.1-4-10.5-4.4-14.8c-0.1-0.7,0.8-1,1.2-0.5
		l0,0c2.3,2.5,5.3,4.4,8.6,5.3c1.9,0.5,3.2,0.6,3.2,0.6c2.1,0,3.8-0.2,6.3-1.4C539.8,186.2,542.7,175.3,537.6,166.3z"/>
</g>
<g>
	<path class="st6" d="M647.9,404.1c-3.1-5.9-10.2-8.5-16.5-6.5c-1.2,0.4-2.6,0.8-4,1.4c1.6-2.6,2.7-5.4,3.4-7.6
		c2-6.3-0.6-13.4-6.5-16.5c-1.9-1-3.7-1.6-6-1.6s-4.5,0.7-6.4,1.6c-5.9,3.1-8.5,10.2-6.5,16.5c0.7,2.3,1.7,5.3,3.2,8.1
		c-1.9-0.8-3.7-1.4-5.3-1.9c-6.3-2-13.4,0.6-16.5,6.5c-1,1.9-1.6,4.1-1.6,6.4c0,2.3,0.6,4.1,1.6,6c3.1,5.9,10.2,8.5,16.5,6.5
		c2.6-0.8,6.1-2.3,9.2-4.4l-3.4,30.4h16.8l-3.4-30.4c3,2.1,6.5,3.6,9.2,4.4c6.3,2,13.4-0.6,16.5-6.5c1-1.9,1.6-3.7,1.6-6
		C649.6,408.2,648.9,406.1,647.9,404.1z"/>
</g>
<g>
	<polygon class="st7" points="415.4,103 390.1,141 363.5,103 388.8,67.6 	"/>
</g>
<g>
	<path class="st7" d="M587.6,319.5c18.2-13.1,27.3-25.1,31.6-34.2c5-10.7,0.7-23.9-10.3-28.3c-12.8-5.2-21.3,6.8-21.3,6.8
		s-8.4-12.1-21.3-6.8c-10.9,4.4-15.3,17.7-10.3,28.3C560.3,294.4,569.4,306.4,587.6,319.5z"/>
</g>
</svg>
